<?xml version="1.0" encoding="utf-8" standalone="no"?>
<!DOCTYPE svg PUBLIC "-//W3C//DTD SVG 1.1//EN"
  "http://www.w3.org/Graphics/SVG/1.1/DTD/svg11.dtd">
<svg xmlns:xlink="http://www.w3.org/1999/xlink" width="576pt" height="576pt" viewBox="0 0 576 576" xmlns="http://www.w3.org/2000/svg" version="1.1">
 <metadata>
  <rdf:RDF xmlns:dc="http://purl.org/dc/elements/1.1/" xmlns:cc="http://creativecommons.org/ns#" xmlns:rdf="http://www.w3.org/1999/02/22-rdf-syntax-ns#">
   <cc:Work>
    <dc:type rdf:resource="http://purl.org/dc/dcmitype/StillImage"/>
    <dc:date>2022-05-29T22:55:38.457154</dc:date>
    <dc:format>image/svg+xml</dc:format>
    <dc:creator>
     <cc:Agent>
      <dc:title>Matplotlib v3.5.1, https://matplotlib.org/</dc:title>
     </cc:Agent>
    </dc:creator>
   </cc:Work>
  </rdf:RDF>
 </metadata>
 <defs>
  <style type="text/css">*{stroke-linejoin: round; stroke-linecap: butt}</style>
 </defs>
 <g id="figure_1">
  <g id="patch_1">
   <path d="M 0 576 
L 576 576 
L 576 0 
L 0 0 
L 0 576 
z
" style="fill: none"/>
  </g>
  <g id="axes_1">
   <g id="patch_2">
    <path d="M 72 504 
L 518.4 504 
L 518.4 69.12 
L 72 69.12 
z
" style="fill: #ffffff"/>
   </g>
   <g id="PathCollection_1">
    <defs>
     <path id="me28f3e5f13" d="M 0 3 
C 0.795609 3 1.55874 2.683901 2.12132 2.12132 
C 2.683901 1.55874 3 0.795609 3 0 
C 3 -0.795609 2.683901 -1.55874 2.12132 -2.12132 
C 1.55874 -2.683901 0.795609 -3 0 -3 
C -0.795609 -3 -1.55874 -2.683901 -2.12132 -2.12132 
C -2.683901 -1.55874 -3 -0.795609 -3 0 
C -3 0.795609 -2.683901 1.55874 -2.12132 2.12132 
C -1.55874 2.683901 -0.795609 3 0 3 
z
" style="stroke: #1f77b4"/>
    </defs>
    <g clip-path="url(#p62a70f787c)">
     <use xlink:href="#me28f3e5f13" x="305.295602" y="475.860785" style="fill: #1f77b4; stroke: #1f77b4"/>
     <use xlink:href="#me28f3e5f13" x="336.750166" y="422.092669" style="fill: #1f77b4; stroke: #1f77b4"/>
     <use xlink:href="#me28f3e5f13" x="310.326123" y="279.066358" style="fill: #1f77b4; stroke: #1f77b4"/>
     <use xlink:href="#me28f3e5f13" x="354.357558" y="373.040901" style="fill: #1f77b4; stroke: #1f77b4"/>
     <use xlink:href="#me28f3e5f13" x="218.895282" y="386.991144" style="fill: #1f77b4; stroke: #1f77b4"/>
     <use xlink:href="#me28f3e5f13" x="336.790991" y="365.250245" style="fill: #1f77b4; stroke: #1f77b4"/>
     <use xlink:href="#me28f3e5f13" x="263.779951" y="200.355844" style="fill: #1f77b4; stroke: #1f77b4"/>
     <use xlink:href="#me28f3e5f13" x="261.341847" y="188.34748" style="fill: #1f77b4; stroke: #1f77b4"/>
     <use xlink:href="#me28f3e5f13" x="162.763098" y="202.534545" style="fill: #1f77b4; stroke: #1f77b4"/>
     <use xlink:href="#me28f3e5f13" x="234.144186" y="137.854095" style="fill: #1f77b4; stroke: #1f77b4"/>
     <use xlink:href="#me28f3e5f13" x="200.509726" y="384.15198" style="fill: #1f77b4; stroke: #1f77b4"/>
     <use xlink:href="#me28f3e5f13" x="231.136959" y="345.57602" style="fill: #1f77b4; stroke: #1f77b4"/>
     <use xlink:href="#me28f3e5f13" x="395.221697" y="338.889205" style="fill: #1f77b4; stroke: #1f77b4"/>
     <use xlink:href="#me28f3e5f13" x="287.593895" y="286.610565" style="fill: #1f77b4; stroke: #1f77b4"/>
     <use xlink:href="#me28f3e5f13" x="260.475504" y="358.571141" style="fill: #1f77b4; stroke: #1f77b4"/>
     <use xlink:href="#me28f3e5f13" x="333.467886" y="237.268862" style="fill: #1f77b4; stroke: #1f77b4"/>
     <use xlink:href="#me28f3e5f13" x="221.823179" y="347.607022" style="fill: #1f77b4; stroke: #1f77b4"/>
     <use xlink:href="#me28f3e5f13" x="92.290909" y="238.006887" style="fill: #1f77b4; stroke: #1f77b4"/>
     <use xlink:href="#me28f3e5f13" x="459.57242" y="293.685971" style="fill: #1f77b4; stroke: #1f77b4"/>
     <use xlink:href="#me28f3e5f13" x="140.187454" y="221.602261" style="fill: #1f77b4; stroke: #1f77b4"/>
     <use xlink:href="#me28f3e5f13" x="208.113407" y="281.938781" style="fill: #1f77b4; stroke: #1f77b4"/>
     <use xlink:href="#me28f3e5f13" x="172.627341" y="121.635139" style="fill: #1f77b4; stroke: #1f77b4"/>
     <use xlink:href="#me28f3e5f13" x="230.495127" y="223.284166" style="fill: #1f77b4; stroke: #1f77b4"/>
     <use xlink:href="#me28f3e5f13" x="256.122752" y="333.154706" style="fill: #1f77b4; stroke: #1f77b4"/>
     <use xlink:href="#me28f3e5f13" x="250.53688" y="287.677862" style="fill: #1f77b4; stroke: #1f77b4"/>
     <use xlink:href="#me28f3e5f13" x="154.75517" y="296.680575" style="fill: #1f77b4; stroke: #1f77b4"/>
     <use xlink:href="#me28f3e5f13" x="361.146404" y="310.261393" style="fill: #1f77b4; stroke: #1f77b4"/>
     <use xlink:href="#me28f3e5f13" x="239.605782" y="241.504422" style="fill: #1f77b4; stroke: #1f77b4"/>
     <use xlink:href="#me28f3e5f13" x="383.758597" y="446.7627" style="fill: #1f77b4; stroke: #1f77b4"/>
     <use xlink:href="#me28f3e5f13" x="306.152557" y="197.198145" style="fill: #1f77b4; stroke: #1f77b4"/>
     <use xlink:href="#me28f3e5f13" x="397.601592" y="484.232727" style="fill: #1f77b4; stroke: #1f77b4"/>
     <use xlink:href="#me28f3e5f13" x="318.423163" y="155.242402" style="fill: #1f77b4; stroke: #1f77b4"/>
     <use xlink:href="#me28f3e5f13" x="386.555307" y="359.37914" style="fill: #1f77b4; stroke: #1f77b4"/>
     <use xlink:href="#me28f3e5f13" x="325.044971" y="304.799918" style="fill: #1f77b4; stroke: #1f77b4"/>
     <use xlink:href="#me28f3e5f13" x="313.360226" y="413.464037" style="fill: #1f77b4; stroke: #1f77b4"/>
     <use xlink:href="#me28f3e5f13" x="304.176496" y="264.766307" style="fill: #1f77b4; stroke: #1f77b4"/>
     <use xlink:href="#me28f3e5f13" x="396.978121" y="409.832145" style="fill: #1f77b4; stroke: #1f77b4"/>
     <use xlink:href="#me28f3e5f13" x="205.755677" y="308.124726" style="fill: #1f77b4; stroke: #1f77b4"/>
     <use xlink:href="#me28f3e5f13" x="143.970564" y="298.235771" style="fill: #1f77b4; stroke: #1f77b4"/>
     <use xlink:href="#me28f3e5f13" x="145.259715" y="264.949956" style="fill: #1f77b4; stroke: #1f77b4"/>
     <use xlink:href="#me28f3e5f13" x="257.524243" y="353.363268" style="fill: #1f77b4; stroke: #1f77b4"/>
     <use xlink:href="#me28f3e5f13" x="237.841606" y="371.826804" style="fill: #1f77b4; stroke: #1f77b4"/>
     <use xlink:href="#me28f3e5f13" x="152.691437" y="348.370294" style="fill: #1f77b4; stroke: #1f77b4"/>
     <use xlink:href="#me28f3e5f13" x="98.99606" y="385.244403" style="fill: #1f77b4; stroke: #1f77b4"/>
     <use xlink:href="#me28f3e5f13" x="197.349438" y="477.084891" style="fill: #1f77b4; stroke: #1f77b4"/>
     <use xlink:href="#me28f3e5f13" x="163.467568" y="416.259345" style="fill: #1f77b4; stroke: #1f77b4"/>
     <use xlink:href="#me28f3e5f13" x="206.627039" y="433.798777" style="fill: #1f77b4; stroke: #1f77b4"/>
     <use xlink:href="#me28f3e5f13" x="463.725839" y="200.565535" style="fill: #1f77b4; stroke: #1f77b4"/>
     <use xlink:href="#me28f3e5f13" x="414.632225" y="193.182258" style="fill: #1f77b4; stroke: #1f77b4"/>
     <use xlink:href="#me28f3e5f13" x="443.842832" y="239.336029" style="fill: #1f77b4; stroke: #1f77b4"/>
     <use xlink:href="#me28f3e5f13" x="498.109091" y="290.089019" style="fill: #1f77b4; stroke: #1f77b4"/>
     <use xlink:href="#me28f3e5f13" x="347.976037" y="88.887273" style="fill: #1f77b4; stroke: #1f77b4"/>
    </g>
   </g>
   <g id="matplotlib.axis_1">
    <g id="xtick_1">
     <g id="line2d_1">
      <defs>
       <path id="mad4272604e" d="M 0 0 
L 0 3.5 
" style="stroke: #000000; stroke-width: 0.8"/>
      </defs>
      <g>
       <use xlink:href="#mad4272604e" x="155.617115" y="504" style="stroke: #000000; stroke-width: 0.8"/>
      </g>
     </g>
     <g id="text_1">
      <!-- −1 -->
      <g transform="translate(148.246021 518.598438)scale(0.1 -0.1)">
       <defs>
        <path id="DejaVuSans-2212" d="M 678 2272 
L 4684 2272 
L 4684 1741 
L 678 1741 
L 678 2272 
z
" transform="scale(0.015625)"/>
        <path id="DejaVuSans-31" d="M 794 531 
L 1825 531 
L 1825 4091 
L 703 3866 
L 703 4441 
L 1819 4666 
L 2450 4666 
L 2450 531 
L 3481 531 
L 3481 0 
L 794 0 
L 794 531 
z
" transform="scale(0.015625)"/>
       </defs>
       <use xlink:href="#DejaVuSans-2212"/>
       <use xlink:href="#DejaVuSans-31" x="83.789062"/>
      </g>
     </g>
    </g>
    <g id="xtick_2">
     <g id="line2d_2">
      <g>
       <use xlink:href="#mad4272604e" x="246.407157" y="504" style="stroke: #000000; stroke-width: 0.8"/>
      </g>
     </g>
     <g id="text_2">
      <!-- 0 -->
      <g transform="translate(243.225907 518.598438)scale(0.1 -0.1)">
       <defs>
        <path id="DejaVuSans-30" d="M 2034 4250 
Q 1547 4250 1301 3770 
Q 1056 3291 1056 2328 
Q 1056 1369 1301 889 
Q 1547 409 2034 409 
Q 2525 409 2770 889 
Q 3016 1369 3016 2328 
Q 3016 3291 2770 3770 
Q 2525 4250 2034 4250 
z
M 2034 4750 
Q 2819 4750 3233 4129 
Q 3647 3509 3647 2328 
Q 3647 1150 3233 529 
Q 2819 -91 2034 -91 
Q 1250 -91 836 529 
Q 422 1150 422 2328 
Q 422 3509 836 4129 
Q 1250 4750 2034 4750 
z
" transform="scale(0.015625)"/>
       </defs>
       <use xlink:href="#DejaVuSans-30"/>
      </g>
     </g>
    </g>
    <g id="xtick_3">
     <g id="line2d_3">
      <g>
       <use xlink:href="#mad4272604e" x="337.1972" y="504" style="stroke: #000000; stroke-width: 0.8"/>
      </g>
     </g>
     <g id="text_3">
      <!-- 1 -->
      <g transform="translate(334.01595 518.598438)scale(0.1 -0.1)">
       <use xlink:href="#DejaVuSans-31"/>
      </g>
     </g>
    </g>
    <g id="xtick_4">
     <g id="line2d_4">
      <g>
       <use xlink:href="#mad4272604e" x="427.987243" y="504" style="stroke: #000000; stroke-width: 0.8"/>
      </g>
     </g>
     <g id="text_4">
      <!-- 2 -->
      <g transform="translate(424.805993 518.598438)scale(0.1 -0.1)">
       <defs>
        <path id="DejaVuSans-32" d="M 1228 531 
L 3431 531 
L 3431 0 
L 469 0 
L 469 531 
Q 828 903 1448 1529 
Q 2069 2156 2228 2338 
Q 2531 2678 2651 2914 
Q 2772 3150 2772 3378 
Q 2772 3750 2511 3984 
Q 2250 4219 1831 4219 
Q 1534 4219 1204 4116 
Q 875 4013 500 3803 
L 500 4441 
Q 881 4594 1212 4672 
Q 1544 4750 1819 4750 
Q 2544 4750 2975 4387 
Q 3406 4025 3406 3419 
Q 3406 3131 3298 2873 
Q 3191 2616 2906 2266 
Q 2828 2175 2409 1742 
Q 1991 1309 1228 531 
z
" transform="scale(0.015625)"/>
       </defs>
       <use xlink:href="#DejaVuSans-32"/>
      </g>
     </g>
    </g>
   </g>
   <g id="matplotlib.axis_2">
    <g id="ytick_1">
     <g id="line2d_5">
      <defs>
       <path id="m1794c2e6da" d="M 0 0 
L -3.5 0 
" style="stroke: #000000; stroke-width: 0.8"/>
      </defs>
      <g>
       <use xlink:href="#m1794c2e6da" x="72" y="458.609209" style="stroke: #000000; stroke-width: 0.8"/>
      </g>
     </g>
     <g id="text_5">
      <!-- −2.0 -->
      <g transform="translate(40.717187 462.408428)scale(0.1 -0.1)">
       <defs>
        <path id="DejaVuSans-2e" d="M 684 794 
L 1344 794 
L 1344 0 
L 684 0 
L 684 794 
z
" transform="scale(0.015625)"/>
       </defs>
       <use xlink:href="#DejaVuSans-2212"/>
       <use xlink:href="#DejaVuSans-32" x="83.789062"/>
       <use xlink:href="#DejaVuSans-2e" x="147.412109"/>
       <use xlink:href="#DejaVuSans-30" x="179.199219"/>
      </g>
     </g>
    </g>
    <g id="ytick_2">
     <g id="line2d_6">
      <g>
       <use xlink:href="#m1794c2e6da" x="72" y="406.067491" style="stroke: #000000; stroke-width: 0.8"/>
      </g>
     </g>
     <g id="text_6">
      <!-- −1.5 -->
      <g transform="translate(40.717187 409.86671)scale(0.1 -0.1)">
       <defs>
        <path id="DejaVuSans-35" d="M 691 4666 
L 3169 4666 
L 3169 4134 
L 1269 4134 
L 1269 2991 
Q 1406 3038 1543 3061 
Q 1681 3084 1819 3084 
Q 2600 3084 3056 2656 
Q 3513 2228 3513 1497 
Q 3513 744 3044 326 
Q 2575 -91 1722 -91 
Q 1428 -91 1123 -41 
Q 819 9 494 109 
L 494 744 
Q 775 591 1075 516 
Q 1375 441 1709 441 
Q 2250 441 2565 725 
Q 2881 1009 2881 1497 
Q 2881 1984 2565 2268 
Q 2250 2553 1709 2553 
Q 1456 2553 1204 2497 
Q 953 2441 691 2322 
L 691 4666 
z
" transform="scale(0.015625)"/>
       </defs>
       <use xlink:href="#DejaVuSans-2212"/>
       <use xlink:href="#DejaVuSans-31" x="83.789062"/>
       <use xlink:href="#DejaVuSans-2e" x="147.412109"/>
       <use xlink:href="#DejaVuSans-35" x="179.199219"/>
      </g>
     </g>
    </g>
    <g id="ytick_3">
     <g id="line2d_7">
      <g>
       <use xlink:href="#m1794c2e6da" x="72" y="353.525773" style="stroke: #000000; stroke-width: 0.8"/>
      </g>
     </g>
     <g id="text_7">
      <!-- −1.0 -->
      <g transform="translate(40.717187 357.324992)scale(0.1 -0.1)">
       <use xlink:href="#DejaVuSans-2212"/>
       <use xlink:href="#DejaVuSans-31" x="83.789062"/>
       <use xlink:href="#DejaVuSans-2e" x="147.412109"/>
       <use xlink:href="#DejaVuSans-30" x="179.199219"/>
      </g>
     </g>
    </g>
    <g id="ytick_4">
     <g id="line2d_8">
      <g>
       <use xlink:href="#m1794c2e6da" x="72" y="300.984055" style="stroke: #000000; stroke-width: 0.8"/>
      </g>
     </g>
     <g id="text_8">
      <!-- −0.5 -->
      <g transform="translate(40.717187 304.783274)scale(0.1 -0.1)">
       <use xlink:href="#DejaVuSans-2212"/>
       <use xlink:href="#DejaVuSans-30" x="83.789062"/>
       <use xlink:href="#DejaVuSans-2e" x="147.412109"/>
       <use xlink:href="#DejaVuSans-35" x="179.199219"/>
      </g>
     </g>
    </g>
    <g id="ytick_5">
     <g id="line2d_9">
      <g>
       <use xlink:href="#m1794c2e6da" x="72" y="248.442337" style="stroke: #000000; stroke-width: 0.8"/>
      </g>
     </g>
     <g id="text_9">
      <!-- 0.0 -->
      <g transform="translate(49.096875 252.241556)scale(0.1 -0.1)">
       <use xlink:href="#DejaVuSans-30"/>
       <use xlink:href="#DejaVuSans-2e" x="63.623047"/>
       <use xlink:href="#DejaVuSans-30" x="95.410156"/>
      </g>
     </g>
    </g>
    <g id="ytick_6">
     <g id="line2d_10">
      <g>
       <use xlink:href="#m1794c2e6da" x="72" y="195.900619" style="stroke: #000000; stroke-width: 0.8"/>
      </g>
     </g>
     <g id="text_10">
      <!-- 0.5 -->
      <g transform="translate(49.096875 199.699838)scale(0.1 -0.1)">
       <use xlink:href="#DejaVuSans-30"/>
       <use xlink:href="#DejaVuSans-2e" x="63.623047"/>
       <use xlink:href="#DejaVuSans-35" x="95.410156"/>
      </g>
     </g>
    </g>
    <g id="ytick_7">
     <g id="line2d_11">
      <g>
       <use xlink:href="#m1794c2e6da" x="72" y="143.358901" style="stroke: #000000; stroke-width: 0.8"/>
      </g>
     </g>
     <g id="text_11">
      <!-- 1.0 -->
      <g transform="translate(49.096875 147.15812)scale(0.1 -0.1)">
       <use xlink:href="#DejaVuSans-31"/>
       <use xlink:href="#DejaVuSans-2e" x="63.623047"/>
       <use xlink:href="#DejaVuSans-30" x="95.410156"/>
      </g>
     </g>
    </g>
    <g id="ytick_8">
     <g id="line2d_12">
      <g>
       <use xlink:href="#m1794c2e6da" x="72" y="90.817183" style="stroke: #000000; stroke-width: 0.8"/>
      </g>
     </g>
     <g id="text_12">
      <!-- 1.5 -->
      <g transform="translate(49.096875 94.616402)scale(0.1 -0.1)">
       <use xlink:href="#DejaVuSans-31"/>
       <use xlink:href="#DejaVuSans-2e" x="63.623047"/>
       <use xlink:href="#DejaVuSans-35" x="95.410156"/>
      </g>
     </g>
    </g>
   </g>
   <g id="patch_3">
    <path d="M 72 504 
L 72 69.12 
" style="fill: none; stroke: #000000; stroke-width: 0.8; stroke-linejoin: miter; stroke-linecap: square"/>
   </g>
   <g id="patch_4">
    <path d="M 518.4 504 
L 518.4 69.12 
" style="fill: none; stroke: #000000; stroke-width: 0.8; stroke-linejoin: miter; stroke-linecap: square"/>
   </g>
   <g id="patch_5">
    <path d="M 72 504 
L 518.4 504 
" style="fill: none; stroke: #000000; stroke-width: 0.8; stroke-linejoin: miter; stroke-linecap: square"/>
   </g>
   <g id="patch_6">
    <path d="M 72 69.12 
L 518.4 69.12 
" style="fill: none; stroke: #000000; stroke-width: 0.8; stroke-linejoin: miter; stroke-linecap: square"/>
   </g>
  </g>
 </g>
 <defs>
  <clipPath id="p62a70f787c">
   <rect x="72" y="69.12" width="446.4" height="434.88"/>
  </clipPath>
 </defs>
</svg>
